<?xml version="1.0" encoding="UTF-8" standalone="no"?>
<!DOCTYPE svg PUBLIC "-//W3C//DTD SVG 1.1//EN" "http://www.w3.org/Graphics/SVG/1.1/DTD/svg11.dtd">
<svg width="100%" height="100%" viewBox="0 0 5290 1773" version="1.1" xmlns="http://www.w3.org/2000/svg" xmlns:xlink="http://www.w3.org/1999/xlink" xml:space="preserve" xmlns:serif="http://www.serif.com/" style="fill-rule:evenodd;clip-rule:evenodd;stroke-linecap:round;stroke-linejoin:round;stroke-miterlimit:1.5;">
    <g transform="matrix(1,0,0,1,-2383.84,-6125.56)">
        <g transform="matrix(1200,0,0,1200,2754.72,7286.8)">
            <path d="M0.126,-0.366C0.178,-0.429 0.288,-0.521 0.273,-0.492C0.257,-0.462 0.24,-0.435 0.222,-0.411C0.203,-0.387 0.186,-0.358 0.171,-0.325C0.155,-0.292 0.147,-0.259 0.147,-0.228C0.147,-0.173 0.165,-0.131 0.202,-0.104C0.239,-0.077 0.285,-0.063 0.34,-0.063C0.369,-0.063 0.399,-0.07 0.432,-0.083C0.464,-0.096 0.489,-0.11 0.508,-0.125C0.512,-0.225 0.514,-0.306 0.514,-0.369C0.514,-0.431 0.513,-0.492 0.51,-0.551C0.507,-0.61 0.505,-0.64 0.505,-0.642C0.505,-0.656 0.509,-0.669 0.519,-0.68C0.528,-0.691 0.539,-0.696 0.553,-0.696C0.567,-0.696 0.579,-0.691 0.588,-0.68C0.596,-0.669 0.601,-0.656 0.601,-0.642C0.601,-0.64 0.6,-0.61 0.597,-0.551C0.594,-0.492 0.592,-0.426 0.592,-0.355C0.592,-0.284 0.594,-0.216 0.597,-0.153C0.6,-0.09 0.601,-0.053 0.601,-0.042C0.601,-0.031 0.596,-0.021 0.588,-0.01C0.579,0.001 0.567,0.006 0.553,0.006C0.539,0.006 0.528,0.001 0.519,-0.01C0.509,-0.021 0.505,-0.033 0.505,-0.046L0.505,-0.073C0.442,-0.02 0.375,0.006 0.306,0.006C0.236,0.006 0.178,-0.012 0.133,-0.048C0.087,-0.084 0.064,-0.133 0.064,-0.194C0.064,-0.234 0.072,-0.273 0.089,-0.311C0.105,-0.349 0.107,-0.342 0.126,-0.366Z" style="fill:white;fill-rule:nonzero;"/>
        </g>
        <g transform="matrix(1200,0,0,1200,3565.92,7286.8)">
            <path d="M0.066,-0.073C0.066,-0.332 0.064,-0.487 0.061,-0.538C0.055,-0.63 0.052,-0.684 0.052,-0.699C0.052,-0.714 0.057,-0.727 0.066,-0.736C0.075,-0.745 0.085,-0.75 0.098,-0.75C0.111,-0.75 0.121,-0.745 0.129,-0.736C0.137,-0.727 0.141,-0.715 0.141,-0.701C0.141,-0.659 0.139,-0.602 0.136,-0.53C0.129,-0.361 0.126,-0.235 0.126,-0.152C0.126,-0.132 0.132,-0.113 0.146,-0.095C0.159,-0.076 0.165,-0.06 0.165,-0.045C0.165,-0.03 0.16,-0.018 0.15,-0.009C0.14,0.001 0.129,0.006 0.116,0.006C0.083,0.006 0.066,-0.02 0.066,-0.073Z" style="fill:white;fill-rule:nonzero;"/>
        </g>
        <g>
            <g transform="matrix(1200,0,0,1200,3823.92,7286.8)">
                <path d="M0.278,-0.382C0.275,-0.382 0.233,-0.385 0.153,-0.39C0.153,-0.381 0.152,-0.348 0.149,-0.291C0.146,-0.234 0.145,-0.191 0.145,-0.164C0.145,-0.136 0.151,-0.113 0.164,-0.095C0.176,-0.076 0.182,-0.06 0.182,-0.045C0.182,-0.03 0.177,-0.018 0.167,-0.009C0.157,0.001 0.146,0.006 0.133,0.006C0.1,0.006 0.083,-0.02 0.083,-0.073L0.079,-0.276C0.079,-0.317 0.078,-0.354 0.076,-0.387L0.052,-0.387C0.043,-0.387 0.035,-0.39 0.029,-0.396C0.023,-0.401 0.02,-0.409 0.02,-0.419C0.02,-0.429 0.023,-0.437 0.029,-0.443C0.035,-0.448 0.043,-0.451 0.052,-0.451L0.073,-0.451C0.072,-0.486 0.071,-0.512 0.071,-0.531C0.071,-0.549 0.076,-0.564 0.085,-0.575C0.094,-0.586 0.104,-0.591 0.117,-0.591C0.13,-0.591 0.14,-0.586 0.148,-0.576C0.156,-0.565 0.16,-0.548 0.16,-0.525C0.16,-0.502 0.159,-0.476 0.157,-0.448L0.278,-0.456C0.304,-0.456 0.317,-0.444 0.317,-0.419C0.317,-0.394 0.304,-0.382 0.278,-0.382Z" style="fill:white;fill-rule:nonzero;"/>
            </g>
            <g transform="matrix(1200,0,0,1200,4228.32,7286.8)">
                <path d="M0.153,-0.235L0.161,-0.054C0.161,-0.036 0.157,-0.022 0.148,-0.011C0.138,0 0.128,0.006 0.115,0.006C0.102,0.006 0.092,0.001 0.084,-0.01C0.076,-0.02 0.072,-0.034 0.072,-0.052C0.072,-0.07 0.074,-0.096 0.077,-0.129C0.084,-0.196 0.087,-0.252 0.087,-0.298C0.087,-0.318 0.081,-0.337 0.069,-0.356C0.056,-0.374 0.05,-0.39 0.05,-0.405C0.05,-0.42 0.055,-0.432 0.065,-0.442C0.075,-0.451 0.086,-0.456 0.099,-0.456C0.132,-0.456 0.149,-0.43 0.149,-0.377L0.149,-0.338C0.169,-0.374 0.193,-0.403 0.221,-0.424C0.249,-0.445 0.275,-0.456 0.298,-0.456C0.321,-0.456 0.339,-0.45 0.352,-0.439C0.364,-0.427 0.37,-0.411 0.37,-0.392C0.37,-0.373 0.365,-0.357 0.356,-0.344C0.347,-0.331 0.337,-0.324 0.326,-0.324C0.315,-0.324 0.307,-0.327 0.302,-0.333C0.296,-0.338 0.292,-0.344 0.289,-0.351C0.286,-0.357 0.281,-0.363 0.274,-0.369C0.267,-0.374 0.257,-0.377 0.246,-0.377C0.227,-0.377 0.207,-0.364 0.188,-0.339C0.169,-0.314 0.157,-0.279 0.153,-0.235Z" style="fill:white;fill-rule:nonzero;"/>
            </g>
            <g transform="matrix(1200,0,0,1200,4696.32,7286.8)">
                <path d="M0.382,-0.134C0.387,-0.122 0.397,-0.106 0.412,-0.086C0.427,-0.065 0.434,-0.049 0.434,-0.036C0.434,-0.023 0.431,-0.013 0.424,-0.006C0.417,0.002 0.408,0.006 0.397,0.006C0.37,0.006 0.345,-0.022 0.324,-0.079L0.316,-0.101C0.282,-0.03 0.231,0.006 0.163,0.006C0.129,0.006 0.101,-0.005 0.079,-0.027C0.056,-0.048 0.045,-0.075 0.045,-0.108C0.045,-0.159 0.062,-0.202 0.097,-0.239C0.132,-0.276 0.177,-0.295 0.233,-0.298C0.22,-0.321 0.205,-0.339 0.189,-0.351C0.172,-0.362 0.157,-0.369 0.144,-0.371C0.131,-0.373 0.118,-0.374 0.107,-0.375C0.095,-0.375 0.086,-0.377 0.079,-0.382C0.072,-0.387 0.069,-0.396 0.069,-0.41C0.069,-0.423 0.075,-0.434 0.086,-0.443C0.097,-0.452 0.11,-0.456 0.125,-0.456C0.168,-0.456 0.211,-0.434 0.253,-0.391C0.295,-0.348 0.332,-0.28 0.363,-0.187L0.382,-0.134ZM0.208,-0.245C0.184,-0.245 0.163,-0.237 0.144,-0.221C0.125,-0.205 0.115,-0.184 0.115,-0.159C0.115,-0.134 0.124,-0.113 0.141,-0.096C0.158,-0.079 0.178,-0.07 0.202,-0.07C0.226,-0.07 0.247,-0.079 0.264,-0.096C0.281,-0.113 0.29,-0.133 0.29,-0.156C0.29,-0.173 0.287,-0.188 0.281,-0.203C0.275,-0.217 0.271,-0.226 0.27,-0.229C0.253,-0.24 0.232,-0.245 0.208,-0.245Z" style="fill:white;fill-rule:nonzero;"/>
            </g>
            <g transform="matrix(1200,0,0,1200,5175.12,7286.8)">
                <path d="M0.043,-0.349C0.028,-0.376 0.02,-0.397 0.02,-0.411C0.02,-0.424 0.024,-0.435 0.032,-0.444C0.04,-0.452 0.052,-0.456 0.067,-0.456C0.082,-0.456 0.097,-0.444 0.11,-0.419C0.123,-0.393 0.146,-0.341 0.178,-0.263C0.21,-0.184 0.233,-0.124 0.247,-0.084L0.255,-0.062C0.278,-0.077 0.304,-0.111 0.333,-0.165C0.361,-0.218 0.375,-0.267 0.375,-0.31C0.375,-0.325 0.371,-0.343 0.363,-0.364C0.355,-0.385 0.351,-0.401 0.351,-0.412C0.351,-0.423 0.356,-0.434 0.365,-0.443C0.374,-0.452 0.386,-0.456 0.401,-0.456C0.416,-0.456 0.429,-0.449 0.439,-0.435C0.448,-0.42 0.453,-0.396 0.453,-0.362C0.453,-0.327 0.441,-0.281 0.417,-0.222C0.393,-0.163 0.363,-0.112 0.328,-0.067C0.289,-0.018 0.255,0.006 0.225,0.006C0.204,0.006 0.186,-0.012 0.173,-0.047C0.127,-0.174 0.084,-0.275 0.043,-0.349Z" style="fill:white;fill-rule:nonzero;"/>
            </g>
            <g transform="matrix(1200,0,0,1200,5742.72,7286.8)">
                <path d="M0.238,-0.199L0.119,-0.209C0.108,-0.209 0.099,-0.208 0.092,-0.206C0.096,-0.168 0.112,-0.136 0.141,-0.111C0.169,-0.086 0.202,-0.073 0.241,-0.073C0.278,-0.073 0.312,-0.087 0.342,-0.114C0.353,-0.123 0.361,-0.128 0.366,-0.128C0.371,-0.128 0.376,-0.126 0.38,-0.122C0.384,-0.118 0.386,-0.114 0.386,-0.109C0.386,-0.09 0.367,-0.066 0.33,-0.037C0.292,-0.008 0.249,0.006 0.202,0.006C0.154,0.006 0.113,-0.013 0.078,-0.052C0.043,-0.091 0.025,-0.139 0.025,-0.196C0.025,-0.269 0.053,-0.331 0.108,-0.381C0.163,-0.431 0.224,-0.456 0.291,-0.456C0.319,-0.456 0.342,-0.451 0.36,-0.442C0.377,-0.432 0.386,-0.42 0.386,-0.405C0.386,-0.39 0.382,-0.377 0.373,-0.368C0.364,-0.359 0.355,-0.354 0.346,-0.354C0.337,-0.354 0.323,-0.358 0.302,-0.366C0.281,-0.374 0.26,-0.378 0.241,-0.378C0.205,-0.378 0.174,-0.367 0.148,-0.346C0.121,-0.324 0.104,-0.297 0.095,-0.265L0.233,-0.273C0.264,-0.273 0.279,-0.261 0.279,-0.237C0.279,-0.212 0.265,-0.199 0.238,-0.199Z" style="fill:white;fill-rule:nonzero;"/>
            </g>
            <g transform="matrix(1200,0,0,1200,6229.92,7286.8)">
                <path d="M0.153,-0.235L0.161,-0.054C0.161,-0.036 0.157,-0.022 0.148,-0.011C0.138,0 0.128,0.006 0.115,0.006C0.102,0.006 0.092,0.001 0.084,-0.01C0.076,-0.02 0.072,-0.034 0.072,-0.052C0.072,-0.07 0.074,-0.096 0.077,-0.129C0.084,-0.196 0.087,-0.252 0.087,-0.298C0.087,-0.318 0.081,-0.337 0.069,-0.356C0.056,-0.374 0.05,-0.39 0.05,-0.405C0.05,-0.42 0.055,-0.432 0.065,-0.442C0.075,-0.451 0.086,-0.456 0.099,-0.456C0.132,-0.456 0.149,-0.43 0.149,-0.377L0.149,-0.338C0.169,-0.374 0.193,-0.403 0.221,-0.424C0.249,-0.445 0.275,-0.456 0.298,-0.456C0.321,-0.456 0.339,-0.45 0.352,-0.439C0.364,-0.427 0.37,-0.411 0.37,-0.392C0.37,-0.373 0.365,-0.357 0.356,-0.344C0.347,-0.331 0.337,-0.324 0.326,-0.324C0.315,-0.324 0.307,-0.327 0.302,-0.333C0.296,-0.338 0.292,-0.344 0.289,-0.351C0.286,-0.357 0.281,-0.363 0.274,-0.369C0.267,-0.374 0.257,-0.377 0.246,-0.377C0.227,-0.377 0.207,-0.364 0.188,-0.339C0.169,-0.314 0.157,-0.279 0.153,-0.235Z" style="fill:white;fill-rule:nonzero;"/>
            </g>
            <g transform="matrix(1200,0,0,1200,6697.92,7286.8)">
                <path d="M0.135,0.006C0.11,0.006 0.09,0.001 0.075,-0.009C0.06,-0.019 0.052,-0.032 0.052,-0.047C0.052,-0.062 0.057,-0.074 0.066,-0.083C0.075,-0.092 0.084,-0.096 0.093,-0.096C0.101,-0.096 0.116,-0.092 0.137,-0.084C0.158,-0.076 0.179,-0.072 0.202,-0.072C0.224,-0.072 0.246,-0.078 0.269,-0.09C0.292,-0.101 0.303,-0.116 0.303,-0.133C0.303,-0.15 0.295,-0.163 0.278,-0.172C0.261,-0.181 0.24,-0.189 0.216,-0.195C0.192,-0.2 0.168,-0.207 0.144,-0.214C0.12,-0.221 0.099,-0.233 0.083,-0.248C0.066,-0.263 0.057,-0.281 0.057,-0.303C0.057,-0.339 0.08,-0.374 0.126,-0.407C0.172,-0.44 0.223,-0.456 0.278,-0.456C0.305,-0.456 0.325,-0.451 0.34,-0.442C0.354,-0.432 0.361,-0.419 0.361,-0.404C0.361,-0.389 0.357,-0.377 0.348,-0.368C0.339,-0.359 0.33,-0.354 0.321,-0.354C0.312,-0.354 0.297,-0.358 0.276,-0.366C0.255,-0.374 0.234,-0.378 0.212,-0.378C0.189,-0.378 0.17,-0.373 0.154,-0.364C0.137,-0.355 0.129,-0.343 0.129,-0.33C0.129,-0.317 0.142,-0.305 0.168,-0.295C0.193,-0.285 0.221,-0.277 0.252,-0.271C0.283,-0.265 0.311,-0.253 0.337,-0.236C0.362,-0.218 0.375,-0.195 0.375,-0.167C0.375,-0.124 0.35,-0.084 0.299,-0.048C0.248,-0.012 0.194,0.006 0.135,0.006Z" style="fill:white;fill-rule:nonzero;"/>
            </g>
            <g transform="matrix(1200,0,0,1200,7210.32,7286.8)">
                <path d="M0.238,-0.199L0.119,-0.209C0.108,-0.209 0.099,-0.208 0.092,-0.206C0.096,-0.168 0.112,-0.136 0.141,-0.111C0.169,-0.086 0.202,-0.073 0.241,-0.073C0.278,-0.073 0.312,-0.087 0.342,-0.114C0.353,-0.123 0.361,-0.128 0.366,-0.128C0.371,-0.128 0.376,-0.126 0.38,-0.122C0.384,-0.118 0.386,-0.114 0.386,-0.109C0.386,-0.09 0.367,-0.066 0.33,-0.037C0.292,-0.008 0.249,0.006 0.202,0.006C0.154,0.006 0.113,-0.013 0.078,-0.052C0.043,-0.091 0.025,-0.139 0.025,-0.196C0.025,-0.269 0.053,-0.331 0.108,-0.381C0.163,-0.431 0.224,-0.456 0.291,-0.456C0.319,-0.456 0.342,-0.451 0.36,-0.442C0.377,-0.432 0.386,-0.42 0.386,-0.405C0.386,-0.39 0.382,-0.377 0.373,-0.368C0.364,-0.359 0.355,-0.354 0.346,-0.354C0.337,-0.354 0.323,-0.358 0.302,-0.366C0.281,-0.374 0.26,-0.378 0.241,-0.378C0.205,-0.378 0.174,-0.367 0.148,-0.346C0.121,-0.324 0.104,-0.297 0.095,-0.265L0.233,-0.273C0.264,-0.273 0.279,-0.261 0.279,-0.237C0.279,-0.212 0.265,-0.199 0.238,-0.199Z" style="fill:white;fill-rule:nonzero;"/>
            </g>
        </g>
        <g transform="matrix(1,0,0,1,1805.09,998.637)">
            <g transform="matrix(600,0,0,600,2499.78,6890.24)">
                <path d="M0.622,-0.071C0.59,-0.043 0.553,-0.022 0.513,-0.007C0.473,0.008 0.431,0.015 0.388,0.015C0.355,0.015 0.323,0.011 0.292,0.002C0.261,-0.006 0.233,-0.019 0.206,-0.034C0.179,-0.05 0.155,-0.069 0.133,-0.091C0.111,-0.113 0.092,-0.137 0.076,-0.164C0.061,-0.191 0.048,-0.22 0.04,-0.251C0.031,-0.282 0.027,-0.314 0.027,-0.347C0.027,-0.38 0.031,-0.412 0.04,-0.443C0.048,-0.473 0.061,-0.502 0.076,-0.529C0.092,-0.556 0.111,-0.58 0.133,-0.602C0.155,-0.624 0.179,-0.643 0.206,-0.659C0.233,-0.674 0.261,-0.686 0.292,-0.695C0.323,-0.704 0.355,-0.708 0.388,-0.708C0.431,-0.708 0.473,-0.701 0.513,-0.686C0.553,-0.671 0.59,-0.65 0.622,-0.622L0.549,-0.5C0.528,-0.521 0.503,-0.538 0.476,-0.551C0.448,-0.563 0.419,-0.569 0.388,-0.569C0.358,-0.569 0.329,-0.563 0.302,-0.551C0.275,-0.54 0.252,-0.524 0.231,-0.504C0.211,-0.484 0.195,-0.46 0.184,-0.433C0.172,-0.406 0.166,-0.378 0.166,-0.347C0.166,-0.316 0.172,-0.287 0.184,-0.26C0.195,-0.233 0.211,-0.21 0.231,-0.189C0.252,-0.169 0.275,-0.153 0.302,-0.142C0.329,-0.13 0.358,-0.124 0.388,-0.124C0.406,-0.124 0.423,-0.126 0.439,-0.13C0.456,-0.135 0.472,-0.14 0.487,-0.148L0.487,-0.347L0.622,-0.347L0.622,-0.071Z" style="fill:white;fill-rule:nonzero;"/>
            </g>
            <g transform="matrix(600,0,0,600,2898.8,6890.24)">
                <path d="M0.557,-0L0.525,-0L0.473,-0.072C0.46,-0.06 0.447,-0.05 0.433,-0.04C0.419,-0.03 0.404,-0.021 0.388,-0.014C0.373,-0.007 0.357,-0.001 0.34,0.003C0.324,0.008 0.307,0.01 0.29,0.01C0.253,0.01 0.219,0.004 0.186,-0.009C0.154,-0.021 0.126,-0.039 0.101,-0.063C0.077,-0.086 0.058,-0.115 0.044,-0.149C0.03,-0.184 0.023,-0.222 0.023,-0.266C0.023,-0.307 0.03,-0.344 0.044,-0.378C0.058,-0.412 0.077,-0.441 0.101,-0.466C0.126,-0.49 0.154,-0.509 0.186,-0.523C0.219,-0.536 0.253,-0.543 0.29,-0.543C0.307,-0.543 0.324,-0.541 0.34,-0.537C0.357,-0.532 0.373,-0.527 0.389,-0.519C0.404,-0.512 0.419,-0.503 0.433,-0.493C0.448,-0.483 0.461,-0.472 0.473,-0.46L0.525,-0.522L0.557,-0.522L0.557,-0ZM0.423,-0.266C0.423,-0.284 0.419,-0.302 0.412,-0.319C0.405,-0.336 0.396,-0.351 0.384,-0.365C0.372,-0.378 0.358,-0.388 0.342,-0.396C0.325,-0.404 0.308,-0.408 0.29,-0.408C0.272,-0.408 0.255,-0.405 0.239,-0.399C0.222,-0.393 0.208,-0.384 0.197,-0.372C0.185,-0.36 0.175,-0.345 0.168,-0.327C0.162,-0.309 0.158,-0.289 0.158,-0.266C0.158,-0.243 0.162,-0.223 0.168,-0.205C0.175,-0.188 0.185,-0.173 0.197,-0.161C0.208,-0.149 0.222,-0.139 0.239,-0.133C0.255,-0.127 0.272,-0.124 0.29,-0.124C0.308,-0.124 0.325,-0.128 0.342,-0.136C0.358,-0.144 0.372,-0.155 0.384,-0.168C0.396,-0.181 0.405,-0.196 0.412,-0.213C0.419,-0.23 0.423,-0.248 0.423,-0.266Z" style="fill:white;fill-rule:nonzero;"/>
            </g>
            <g transform="matrix(600,0,0,600,3263.55,6890.24)">
                <path d="M0.716,-0L0.583,-0L0.583,-0.332C0.583,-0.341 0.581,-0.35 0.578,-0.358C0.574,-0.366 0.57,-0.373 0.563,-0.379C0.557,-0.386 0.55,-0.39 0.542,-0.394C0.534,-0.397 0.525,-0.399 0.516,-0.399C0.507,-0.399 0.498,-0.397 0.49,-0.394C0.483,-0.39 0.476,-0.386 0.469,-0.379C0.463,-0.373 0.459,-0.366 0.455,-0.358C0.452,-0.35 0.45,-0.341 0.45,-0.332L0.45,-0L0.317,-0L0.317,-0.332C0.317,-0.341 0.315,-0.35 0.312,-0.358C0.308,-0.366 0.304,-0.373 0.297,-0.379C0.291,-0.386 0.284,-0.39 0.276,-0.394C0.268,-0.397 0.259,-0.399 0.25,-0.399C0.241,-0.399 0.232,-0.397 0.224,-0.394C0.216,-0.39 0.209,-0.386 0.203,-0.379C0.197,-0.373 0.193,-0.366 0.189,-0.358C0.186,-0.35 0.184,-0.341 0.184,-0.332L0.184,-0L0.051,-0L0.051,-0.523L0.083,-0.523L0.119,-0.483C0.138,-0.499 0.158,-0.511 0.18,-0.519C0.203,-0.528 0.226,-0.532 0.25,-0.532C0.274,-0.532 0.298,-0.528 0.322,-0.519C0.345,-0.509 0.365,-0.494 0.383,-0.471C0.391,-0.482 0.4,-0.492 0.411,-0.5C0.421,-0.507 0.432,-0.514 0.444,-0.519C0.455,-0.523 0.467,-0.527 0.479,-0.529C0.492,-0.531 0.504,-0.532 0.516,-0.532C0.544,-0.532 0.57,-0.527 0.594,-0.517C0.618,-0.506 0.639,-0.492 0.657,-0.474C0.676,-0.456 0.69,-0.435 0.7,-0.41C0.711,-0.386 0.716,-0.36 0.716,-0.332L0.716,-0Z" style="fill:white;fill-rule:nonzero;"/>
            </g>
            <g transform="matrix(600,0,0,600,3720.87,6890.24)">
                <path d="M0.259,-0.128C0.264,-0.126 0.269,-0.125 0.274,-0.125C0.28,-0.124 0.285,-0.124 0.29,-0.124C0.303,-0.124 0.316,-0.126 0.328,-0.129C0.34,-0.133 0.351,-0.138 0.362,-0.145C0.372,-0.151 0.382,-0.16 0.39,-0.169C0.398,-0.179 0.405,-0.189 0.41,-0.201L0.508,-0.103C0.495,-0.085 0.481,-0.07 0.465,-0.056C0.449,-0.042 0.432,-0.03 0.413,-0.02C0.394,-0.01 0.374,-0.003 0.354,0.002C0.333,0.007 0.312,0.01 0.29,0.01C0.253,0.01 0.219,0.003 0.186,-0.011C0.154,-0.024 0.126,-0.043 0.101,-0.068C0.077,-0.092 0.058,-0.121 0.044,-0.155C0.03,-0.189 0.023,-0.226 0.023,-0.266C0.023,-0.307 0.03,-0.345 0.044,-0.379C0.058,-0.414 0.077,-0.443 0.101,-0.467C0.126,-0.491 0.154,-0.51 0.186,-0.523C0.219,-0.536 0.253,-0.543 0.29,-0.543C0.312,-0.543 0.333,-0.54 0.354,-0.535C0.375,-0.53 0.395,-0.522 0.413,-0.513C0.432,-0.503 0.45,-0.491 0.466,-0.477C0.482,-0.463 0.496,-0.447 0.509,-0.429L0.259,-0.128ZM0.327,-0.403C0.321,-0.405 0.315,-0.407 0.309,-0.407C0.303,-0.408 0.297,-0.408 0.29,-0.408C0.272,-0.408 0.255,-0.405 0.239,-0.398C0.222,-0.392 0.208,-0.382 0.197,-0.37C0.185,-0.357 0.175,-0.342 0.168,-0.325C0.162,-0.308 0.158,-0.288 0.158,-0.266C0.158,-0.261 0.158,-0.256 0.159,-0.25C0.159,-0.243 0.16,-0.237 0.161,-0.231C0.163,-0.224 0.164,-0.218 0.166,-0.212C0.167,-0.207 0.169,-0.201 0.172,-0.197L0.327,-0.403Z" style="fill:white;fill-rule:nonzero;"/>
            </g>
            <g transform="matrix(600,0,0,600,4035.81,6890.24)">
                <path d="M0.338,-0L0.033,-0L0.033,-0.133L0.338,-0.133C0.347,-0.133 0.355,-0.136 0.361,-0.143C0.368,-0.149 0.371,-0.157 0.371,-0.166C0.371,-0.175 0.368,-0.182 0.361,-0.185C0.355,-0.188 0.347,-0.189 0.338,-0.189L0.199,-0.189C0.176,-0.189 0.154,-0.193 0.134,-0.202C0.114,-0.211 0.097,-0.223 0.082,-0.238C0.067,-0.253 0.055,-0.271 0.046,-0.291C0.038,-0.311 0.033,-0.333 0.033,-0.356C0.033,-0.379 0.038,-0.401 0.046,-0.421C0.055,-0.441 0.067,-0.459 0.082,-0.474C0.097,-0.489 0.114,-0.5 0.134,-0.509C0.154,-0.518 0.176,-0.522 0.199,-0.522L0.469,-0.522L0.469,-0.389L0.199,-0.389C0.19,-0.389 0.182,-0.386 0.176,-0.379C0.169,-0.373 0.166,-0.365 0.166,-0.356C0.166,-0.347 0.169,-0.338 0.176,-0.332C0.182,-0.325 0.19,-0.322 0.199,-0.322L0.338,-0.322C0.361,-0.322 0.382,-0.318 0.402,-0.31C0.423,-0.303 0.44,-0.292 0.455,-0.278C0.47,-0.265 0.482,-0.248 0.491,-0.229C0.5,-0.21 0.504,-0.189 0.504,-0.166C0.504,-0.143 0.5,-0.121 0.491,-0.101C0.482,-0.081 0.47,-0.064 0.455,-0.049C0.44,-0.033 0.423,-0.022 0.402,-0.013C0.382,-0.004 0.361,-0 0.338,-0Z" style="fill:white;fill-rule:nonzero;"/>
            </g>
        </g>
        <g transform="matrix(0.997907,-0.0646677,0.0646677,0.997907,-6.40323,3161.9)">
            <path d="M2525.14,3913.52C2791.86,3824.64 2945.76,3677.19 2965.15,3459.92" style="fill:none;stroke:white;stroke-width:39.58px;"/>
        </g>
        <g transform="matrix(0.997907,-0.0646677,0.0646677,0.997907,-6.40323,3161.9)">
            <path d="M2525.14,3913.52L2247.65,3686.72L2525.14,3686.72L2341.94,3361.09L2687.71,3546.64L2633.62,3240.78L2965.15,3459.92" style="fill:none;stroke:white;stroke-width:39.58px;"/>
        </g>
        <g transform="matrix(0.999439,-0.064767,0.0629036,0.970685,-57.2975,3235.7)">
            <path d="M2525.14,3913.52C2791.86,3824.64 2945.76,3677.19 2965.15,3459.92" style="fill:none;stroke:white;stroke-width:40.1px;"/>
        </g>
        <g transform="matrix(0.997907,-0.0646677,0.0646677,0.997907,-47.2279,3112.49)">
            <circle cx="2341.93" cy="3367.38" r="40.546" style="fill:none;stroke:white;stroke-width:39.58px;"/>
        </g>
        <g transform="matrix(0.997907,-0.0646677,0.0646677,0.997907,250.985,2977.01)">
            <circle cx="2341.93" cy="3367.38" r="40.546" style="fill:none;stroke:white;stroke-width:39.58px;"/>
        </g>
        <g transform="matrix(0.997907,-0.0646677,0.0646677,0.997907,-110.617,3463.87)">
            <circle cx="2341.93" cy="3367.38" r="40.546" style="fill:none;stroke:white;stroke-width:39.58px;"/>
        </g>
    </g>
</svg>
